<?xml version="1.0" encoding="UTF-8"?>
<svg id="Layer_2" data-name="Layer 2" xmlns="http://www.w3.org/2000/svg" viewBox="0 0 452.52 421.43">
  <defs>
    <style>
      .cls-1 {
        fill: #f7fcfd;
      }

      .cls-1, .cls-2, .cls-3, .cls-4, .cls-5, .cls-6, .cls-7, .cls-8, .cls-9, .cls-10 {
        stroke-width: 0px;
      }

      .cls-2 {
        fill: #231f20;
      }

      .cls-3 {
        fill: #e6747d;
      }

      .cls-4 {
        fill: #bce5f0;
      }

      .cls-5 {
        fill: #ffd109;
      }

      .cls-6 {
        fill: #f58c8b;
      }

      .cls-7 {
        fill: #f8adae;
      }

      .cls-8 {
        fill: #618eca;
      }

      .cls-9 {
        fill: #fff;
      }

      .cls-10 {
        fill: #b66868;
      }
    </style>
  </defs>
  <g id="Layer_2-2" data-name="Layer 2">
    <g>
      <path class="cls-4" d="M378.81,361.03l44.51,19.33c-14.35-2.42-30.96-4.75-42.92,5.86-6.66,5.9-9.54,13.75-10.67,21.87l-8.7-33.12c-1.56-10.02,7.54-17.17,17.78-13.94Z"/>
      <path class="cls-4" d="M402.39,325.26l39.35-8.46c-10.92,5.46-23.33,12.11-26.57,25.69-1.8,7.56-.13,14.62,2.87,20.99l-21.31-19.34c-5.72-6.39-2.82-16.06,5.66-18.88Z"/>
      <path class="cls-7" d="M425.73,370.47c2.6,2.36,2.77,5.3,1.55,7.65-3.18-4.3-6.69-9.21-9.24-14.62l7.69,6.98Z"/>
      <path class="cls-7" d="M446.4,315.8l-4.67,1c3.75-1.88,7.33-3.61,10.3-5.44-.81,2.06-2.65,3.8-5.63,4.44Z"/>
      <path class="cls-7" d="M368.13,381.07l2.15,27.58c.54,6.96-10.12,9-12.64,2.42l-36.09-56.6.71-8c10.83,14.42,28.08,26.13,45.87,34.6Z"/>
      <path class="cls-7" d="M332.4,311.84l17.04-9.09,14.97-1.33,80.22.05c6.34,0,9.1,5.63,7.41,9.9-2.97,1.83-6.54,3.56-10.3,5.44l-39.35,8.46c-8.48,2.82-11.38,12.49-5.66,18.88l21.31,19.34c2.55,5.41,6.06,10.32,9.24,14.62-1.77,3.41-6.46,5.56-10.88,2.85l-32.96-15.26c-8.58-3.19-15.7-.3-15.87,8.19l.56,7.17c-17.79-8.47-35.05-20.18-45.87-34.6l1.37-15.53,8.77-19.1Z"/>
    </g>
    <g>
      <path class="cls-4" d="M73.71,367.38l-44.51,19.33c14.35-2.42,30.96-4.75,42.92,5.86,6.66,5.9,9.54,13.75,10.67,21.87l8.7-33.12c1.56-10.02-7.54-17.17-17.78-13.94Z"/>
      <path class="cls-4" d="M50.13,331.62l-39.35-8.46c10.92,5.46,23.33,12.11,26.57,25.69,1.8,7.56.13,14.62-2.87,20.99l21.31-19.34c5.72-6.39,2.82-16.06-5.66-18.88Z"/>
      <path class="cls-7" d="M26.79,376.83c-2.6,2.36-2.77,5.3-1.55,7.65,3.18-4.3,6.69-9.21,9.24-14.62l-7.69,6.98Z"/>
      <path class="cls-7" d="M6.12,322.16l4.67,1c-3.75-1.88-7.33-3.61-10.3-5.44.81,2.06,2.65,3.8,5.63,4.44Z"/>
      <path class="cls-7" d="M84.39,387.43l-2.15,27.58c-.54,6.96,10.12,9,12.64,2.42l36.09-56.6-.71-8c-10.83,14.42-28.08,26.13-45.87,34.6Z"/>
      <path class="cls-7" d="M120.12,318.2l-17.04-9.09-14.97-1.33-80.22.05c-6.34,0-9.1,5.63-7.41,9.9,2.97,1.83,6.54,3.56,10.3,5.44l39.35,8.46c8.48,2.82,11.38,12.49,5.66,18.88l-21.31,19.34c-2.55,5.41-6.06,10.32-9.24,14.62,1.77,3.41,6.46,5.56,10.88,2.85l32.96-15.26c8.58-3.19,15.7-.3,15.87,8.19l-.56,7.17c17.79-8.47,35.05-20.18,45.87-34.6l-1.37-15.53-8.77-19.1Z"/>
    </g>
    <circle class="cls-4" cx="227.65" cy="274" r="143"/>
    <g id="Layer_4" data-name="Layer 4">
      <path class="cls-8" d="M185.54,236.08c-32.1-6.64-38.84,48.8-61.93,65.26-38.03,27.1-54.5-43.13-37.41-83.43,19.01-44.84,59.58-48.36,65.87-35.03,9.5,20.12,28.8-16.65,33.68-.52,4.43,14.67,8.24,9.22,15.88,13.21,5.94,3.1-17.23,11.83-15.43,18.36,2.08,7.56,6.56,23.65-.66,22.16Z"/>
      <path class="cls-8" d="M270.05,236.08c32.1-6.64,38.84,48.8,61.93,65.26,38.03,27.1,54.5-43.13,37.41-83.43-19.01-44.84-59.58-48.36-65.87-35.03-9.5,20.12-28.8-16.65-33.68-.52-4.43,14.67-8.24,9.22-15.88,13.21-5.94,3.1,17.23,11.83,15.43,18.36-2.08,7.56-6.56,23.65.66,22.16Z"/>
    </g>
    <path class="cls-5" d="M140.08,244.62c-8.55,29.87-19.02,53.06-48.89,44.51-29.87-8.55-47.15-39.69-38.59-69.56s39.69-47.15,69.56-38.59c29.87,8.55,26.48,33.78,17.93,63.64Z"/>
    <path class="cls-5" d="M312.54,244.62c8.55,29.87,19.02,53.06,48.89,44.51,29.87-8.55,47.15-39.69,38.59-69.56s-39.69-47.15-69.56-38.59c-29.87,8.55-26.48,33.78-17.93,63.64Z"/>
    <path class="cls-7" d="M195.67,112.75c8.85,29.2,21.58,40.37,5.92,42.09-11.59,1.27-4.92-5.52-36.36-16.55-34.91-12.24-66.96-83.25-28.84-84.86,21.53-.91,51.38,33.26,59.28,59.32Z"/>
    <path class="cls-7" d="M244.55,100.32c-13.97,31.8-11.11,59.16-25.92,49.05-10.96-7.48-.28-16.69-19.31-49.5-21.12-36.44,3.74-121.56,37.89-94.73,19.29,15.16,19.8,66.8,7.34,95.18Z"/>
    <path class="cls-7" d="M251.76,113.47c-11.02,28.45-24.55,38.64-9.07,41.52,11.46,2.13,5.32-5.14,37.5-13.77,35.73-9.59,73.02-77.98,35.13-82.45-21.4-2.52-53.73,29.31-63.56,54.7Z"/>
    <path class="cls-6" d="M335.09,330c4.48,33.01-67.84,91.39-131.92,72-52.86-15.99-86.11-53.86-86.11-77.06s58.88-34.94,114.11-34.94,100.8,17.01,103.92,40Z"/>
    <path class="cls-10" d="M323.21,331.9c3.99,29.41-60.43,81.42-117.52,64.14-47.09-14.25-76.71-47.98-76.71-68.65s51.8-28.16,101-28.16,90.45,12.19,93.23,32.67Z"/>
    <path class="cls-3" d="M298.75,355.48c0,15.46-21.28,44-68.41,44s-71.78-26.54-71.78-42,24.65-21,71.78-21,68.41,3.54,68.41,19Z"/>
    <path class="cls-1" d="M230.11,313.97c-.48,8.7-.47,18.05,15.79,18.92,12.35.66,18.08-6.94,20.51-18.69,1.13-5.46,2.28-10.17-.88-13.76-2.69-3.05-7.17-3.85-12.35-4.77-4.69-.83-8.69-.77-11.44-.55-2.18.46-5.94,1.59-8.66,4.55-3.08,3.35-2.59,7.17-2.98,14.3Z"/>
    <path class="cls-1" d="M227.19,314.39c.28,8.7.06,18.06-16.21,18.56-12.36.38-17.92-7.34-20.08-19.15-1.01-5.48-2.05-10.22,1.19-13.74,2.75-2.99,7.26-3.69,12.45-4.49,4.71-.73,8.71-.57,11.45-.29,2.16.51,5.9,1.72,8.56,4.75,3.01,3.42,2.42,7.23,2.65,14.37Z"/>
    <path class="cls-2" d="M336.51,233.8c5.43,17.56,11.39,31.32,24.48,27.27,13.09-4.05,19.29-21.57,13.86-39.13-5.43-17.56-20.45-28.52-33.53-24.47-13.09,4.05-10.23,18.77-4.8,36.33Z"/>
    <path class="cls-2" d="M116.61,235.12c-4.81,17.74-10.27,31.7-23.49,28.12s-20.04-20.87-15.23-38.61c4.81-17.74,19.42-29.22,32.64-25.64,13.22,3.58,10.89,18.39,6.08,36.13Z"/>
    <path class="cls-9" d="M106.96,206.7c-1.74,2.86-6.28,6.25-9.39,7.03-3.45.87-5.13.49-8.52-1.58-6.43-3.92-6.45-10.34-2.77-16.37,3.68-6.03,11.88-7.75,18.31-3.83s6.05,8.71,2.37,14.75Z"/>
    <path class="cls-9" d="M347.57,206.02c1.74,2.86,6.28,6.25,9.39,7.03,3.45.87,5.13.49,8.52-1.58,6.43-3.92,6.45-10.34,2.77-16.37-3.68-6.03-11.88-7.75-18.31-3.83s-6.05,8.71-2.37,14.75Z"/>
  </g>
</svg>