<?xml version="1.0" encoding="UTF-8"?>
<svg id="Layer_2" data-name="Layer 2" xmlns="http://www.w3.org/2000/svg" viewBox="0 0 807.36 282.53">
  <defs>
    <style>
      .cls-1 {
        fill: #eb6a8e;
      }

      .cls-2 {
        fill: #f7fcfd;
      }

      .cls-2, .cls-3, .cls-4, .cls-5, .cls-6, .cls-7, .cls-8, .cls-9, .cls-10, .cls-11 {
        stroke-width: 0px;
      }

      .cls-3 {
        fill: #231f20;
      }

      .cls-4 {
        fill: #e6747d;
      }

      .cls-12 {
        fill: #7bd1ec;
      }

      .cls-13 {
        font-family: LifeCraft, LifeCraft;
        font-size: 114px;
      }

      .cls-5 {
        fill: #bce5f0;
      }

      .cls-6 {
        fill: #ffd109;
      }

      .cls-7 {
        fill: #f58c8b;
      }

      .cls-8 {
        fill: #f8adae;
      }

      .cls-9 {
        fill: #618eca;
      }

      .cls-10 {
        fill: #fff;
      }

      .cls-11 {
        fill: #b66868;
      }
    </style>
  </defs>
  <g id="Layer_2-2" data-name="Layer 2">
    <g>
      <path class="cls-5" d="M238.22,227.04l27.99,12.16c-9.03-1.52-19.47-2.98-26.99,3.69-4.19,3.71-6,8.64-6.71,13.75l-5.47-20.83c-.98-6.3,4.74-10.8,11.18-8.77Z"/>
      <path class="cls-5" d="M253.05,204.55l24.74-5.32c-6.86,3.43-14.67,7.62-16.71,16.16-1.13,4.75-.08,9.19,1.81,13.2l-13.4-12.16c-3.6-4.02-1.77-10.1,3.56-11.88Z"/>
      <path class="cls-8" d="M267.73,232.97c1.64,1.48,1.74,3.33.98,4.81-2-2.7-4.21-5.79-5.81-9.2l4.83,4.39Z"/>
      <path class="cls-8" d="M280.73,198.6l-2.93.63c2.36-1.18,4.61-2.27,6.47-3.42-.51,1.29-1.67,2.39-3.54,2.79Z"/>
      <path class="cls-8" d="M231.5,239.64l1.35,17.34c.34,4.37-6.37,5.66-7.95,1.52l-22.7-35.6.45-5.03c6.81,9.07,17.66,16.43,28.85,21.76Z"/>
      <path class="cls-8" d="M209.04,196.1l10.71-5.72,9.41-.84,50.45.03c3.99,0,5.72,3.54,4.66,6.23-1.87,1.15-4.11,2.24-6.47,3.42l-24.74,5.32c-5.33,1.77-7.16,7.86-3.56,11.88l13.4,12.16c1.6,3.4,3.81,6.49,5.81,9.2-1.11,2.14-4.06,3.5-6.84,1.79l-20.73-9.6c-5.39-2-9.88-.19-9.98,5.15l.35,4.51c-11.19-5.33-22.04-12.69-28.85-21.76l.86-9.76,5.51-12.01Z"/>
    </g>
    <g>
      <path class="cls-5" d="M46.35,231.03l-27.99,12.16c9.03-1.52,19.47-2.98,26.99,3.69,4.19,3.71,6,8.64,6.71,13.75l5.47-20.83c.98-6.3-4.74-10.8-11.18-8.77Z"/>
      <path class="cls-5" d="M31.52,208.54l-24.74-5.32c6.86,3.43,14.67,7.62,16.71,16.16,1.13,4.75.08,9.19-1.81,13.2l13.4-12.16c3.6-4.02,1.77-10.1-3.56-11.88Z"/>
      <path class="cls-8" d="M16.85,236.97c-1.64,1.48-1.74,3.33-.98,4.81,2-2.7,4.21-5.79,5.81-9.2l-4.83,4.39Z"/>
      <path class="cls-8" d="M3.85,202.59l2.93.63c-2.36-1.18-4.61-2.27-6.47-3.42.51,1.29,1.67,2.39,3.54,2.79Z"/>
      <path class="cls-8" d="M53.07,243.64l-1.35,17.34c-.34,4.37,6.37,5.66,7.95,1.52l22.7-35.6-.45-5.03c-6.81,9.07-17.66,16.43-28.85,21.76Z"/>
      <path class="cls-8" d="M75.54,200.1l-10.71-5.72-9.41-.84-50.45.03c-3.99,0-5.72,3.54-4.66,6.23,1.87,1.15,4.11,2.24,6.47,3.42l24.74,5.32c5.33,1.77,7.16,7.86,3.56,11.88l-13.4,12.16c-1.6,3.4-3.81,6.49-5.81,9.2,1.11,2.14,4.06,3.5,6.84,1.79l20.73-9.6c5.39-2,9.88-.19,9.98,5.15l-.35,4.51c11.19-5.33,22.04-12.69,28.85-21.76l-.86-9.76-5.51-12.01Z"/>
    </g>
    <circle class="cls-5" cx="143.16" cy="172.31" r="89.93"/>
    <g id="Layer_4" data-name="Layer 4">
      <path class="cls-9" d="M116.68,148.46c-20.19-4.18-24.42,30.69-38.95,41.04-23.91,17.04-34.27-27.12-23.53-52.47,11.96-28.2,37.47-30.41,41.42-22.03,5.98,12.65,18.11-10.47,21.18-.33,2.79,9.23,5.18,5.8,9.99,8.31,3.74,1.95-10.83,7.44-9.7,11.55,1.31,4.75,4.12,14.87-.42,13.93Z"/>
      <path class="cls-9" d="M169.82,148.46c20.19-4.18,24.42,30.69,38.95,41.04,23.91,17.04,34.27-27.12,23.53-52.47-11.96-28.2-37.47-30.41-41.42-22.03-5.98,12.65-18.11-10.47-21.18-.33-2.79,9.23-5.18,5.8-9.99,8.31-3.74,1.95,10.83,7.44,9.7,11.55-1.31,4.75-4.12,14.87.42,13.93Z"/>
    </g>
    <path class="cls-6" d="M88.09,153.83c-5.38,18.78-11.96,33.37-30.75,27.99-18.78-5.38-29.65-24.96-24.27-43.74,5.38-18.78,24.96-29.65,43.74-24.27,18.78,5.38,16.65,21.24,11.27,40.02Z"/>
    <path class="cls-6" d="M196.54,153.83c5.38,18.78,11.96,33.37,30.75,27.99,18.78-5.38,29.65-24.96,24.27-43.74-5.38-18.78-24.96-29.65-43.74-24.27-18.78,5.38-16.65,21.24-11.27,40.02Z"/>
    <path class="cls-8" d="M123.05,70.9c5.57,18.36,13.57,25.39,3.73,26.47-7.29.8-3.09-3.47-22.87-10.41-21.95-7.7-42.11-52.35-18.14-53.36,13.54-.57,32.31,20.92,37.28,37.3Z"/>
    <path class="cls-8" d="M153.79,63.09c-8.78,20-6.99,37.2-16.3,30.85-6.89-4.71-.18-10.49-12.14-31.13-13.28-22.91,2.35-76.44,23.83-59.57,12.13,9.53,12.45,42.01,4.61,59.86Z"/>
    <path class="cls-8" d="M158.32,71.36c-6.93,17.89-15.44,24.3-5.7,26.11,7.21,1.34,3.34-3.23,23.58-8.66,22.47-6.03,45.92-49.04,22.09-51.85-13.46-1.59-33.79,18.43-39.97,34.4Z"/>
    <path class="cls-7" d="M210.73,207.53c2.82,20.76-42.66,57.47-82.96,45.28-33.24-10.06-54.15-33.87-54.15-48.46s37.03-21.98,71.76-21.98,63.39,10.7,65.35,25.15Z"/>
    <path class="cls-11" d="M203.25,208.72c2.51,18.5-38.01,51.2-73.9,40.34-29.62-8.96-48.24-30.17-48.24-43.17s32.57-17.71,63.52-17.71,56.88,7.67,58.63,20.54Z"/>
    <path class="cls-4" d="M187.87,223.55c0,9.72-13.38,27.67-43.02,27.67s-45.14-16.69-45.14-26.41,15.5-13.21,45.14-13.21,43.02,2.22,43.02,11.95Z"/>
    <path class="cls-2" d="M144.7,197.44c-.3,5.47-.3,11.35,9.93,11.9,7.76.41,11.37-4.36,12.9-11.75.71-3.43,1.43-6.4-.55-8.65-1.69-1.92-4.51-2.42-7.77-3-2.95-.52-5.46-.48-7.19-.35-1.37.29-3.73,1-5.45,2.86-1.94,2.11-1.63,4.51-1.87,8.99Z"/>
    <path class="cls-2" d="M142.87,197.7c.18,5.47.04,11.35-10.2,11.67-7.77.24-11.27-4.62-12.63-12.04-.63-3.45-1.29-6.43.75-8.64,1.73-1.88,4.56-2.32,7.83-2.82,2.96-.46,5.47-.36,7.2-.18,1.36.32,3.71,1.08,5.38,2.98,1.89,2.15,1.52,4.55,1.67,9.03Z"/>
    <path class="cls-3" d="M211.62,147.03c3.42,11.04,7.16,19.69,15.39,17.15s12.13-13.56,8.71-24.61c-3.42-11.04-12.86-17.93-21.09-15.39s-6.43,11.8-3.02,22.84Z"/>
    <path class="cls-3" d="M73.33,147.86c-3.02,11.16-6.46,19.94-14.77,17.68-8.31-2.25-12.6-13.12-9.58-24.28s12.21-18.38,20.53-16.12c8.31,2.25,6.85,11.57,3.82,22.72Z"/>
    <path class="cls-10" d="M67.26,129.99c-1.1,1.8-3.95,3.93-5.9,4.42-2.17.54-3.23.31-5.35-.99-4.04-2.47-4.06-6.5-1.74-10.3s7.47-4.87,11.51-2.41c4.04,2.47,3.8,5.48,1.49,9.27Z"/>
    <path class="cls-10" d="M218.57,129.56c1.1,1.8,3.95,3.93,5.9,4.42,2.17.54,3.23.31,5.35-.99,4.04-2.47,4.06-6.5,1.74-10.3-2.31-3.79-7.47-4.87-11.51-2.41s-3.8,5.48-1.49,9.27Z"/>
  </g>
  <g id="Layer_3" data-name="Layer 3">
    <text class="cls-13" transform="translate(281.03 134.66)"><tspan class="cls-1"><tspan x="0" y="0">La Hutte des </tspan></tspan><tspan class="cls-12"><tspan x="0" y="118">Murlocs</tspan></tspan></text>
  </g>
</svg>