<?xml version="1.0" encoding="UTF-8"?>
<svg id="Layer_2" data-name="Layer 2" xmlns="http://www.w3.org/2000/svg" viewBox="0 0 1053.36 375.1">
  <defs>
    <style>
      .cls-1 {
        fill: #eb6a8e;
      }

      .cls-2 {
        font-family: LifeCraft, LifeCraft;
        font-size: 151.35px;
      }

      .cls-3 {
        fill: #f7fcfd;
      }

      .cls-3, .cls-4, .cls-5, .cls-6, .cls-7, .cls-8, .cls-9, .cls-10, .cls-11, .cls-12 {
        stroke-width: 0px;
      }

      .cls-4 {
        fill: #231f20;
      }

      .cls-5 {
        fill: #e6747d;
      }

      .cls-13 {
        fill: #7bd1ec;
      }

      .cls-6 {
        fill: #bce5f0;
      }

      .cls-7 {
        fill: #ffd109;
      }

      .cls-8 {
        fill: #f58c8b;
      }

      .cls-9 {
        fill: #f8adae;
      }

      .cls-10 {
        fill: #618eca;
      }

      .cls-11 {
        fill: #fff;
      }

      .cls-12 {
        fill: #b66868;
      }
    </style>
  </defs>
  <g id="Layer_2-2" data-name="Layer 2">
    <g>
      <path class="cls-6" d="M299.51,305.39l40.42,2.81c-11.97,2.1-25.69,4.9-32.15,16.58-3.59,6.5-3.68,13.48-2.3,20.18l-16.08-23.64c-4.03-7.45,1.15-15.61,10.11-15.93Z"/>
      <path class="cls-6" d="M308.1,270.67l28.61-17.63c-7.07,7.34-14.98,16.03-13.75,27.63.69,6.45,3.97,11.54,8.11,15.72l-22.17-9.28c-6.28-3.43-6.7-11.86-.81-16.44Z"/>
      <path class="cls-9" d="M339.07,299.74c2.71,1.13,3.66,3.4,3.35,5.59-3.7-2.5-7.83-5.39-11.35-8.93l7.99,3.35Z"/>
      <path class="cls-9" d="M340.1,250.95l-3.39,2.09c2.43-2.52,4.76-4.89,6.59-7.15-.07,1.85-1.03,3.73-3.19,5.06Z"/>
      <path class="cls-9" d="M296.69,324.14l9.38,21.11c2.37,5.32-5.46,9.9-9.27,5.43l-44.18-34.49-1.67-6.49c12.54,8.33,29.39,12.74,45.75,14.44Z"/>
      <path class="cls-9" d="M249.27,279.62l10.87-11.9,11.41-5.22,63.15-22.33c4.99-1.77,8.73,1.9,8.59,5.73-1.82,2.26-4.16,4.63-6.59,7.15l-28.61,17.63c-5.89,4.58-5.47,13.01.81,16.44l22.17,9.28c3.52,3.55,7.65,6.44,11.35,8.93-.44,3.17-3.53,6.18-7.77,5.28l-30.2-2.82c-7.64-.12-12.44,4.14-10.2,10.87l2.44,5.49c-16.36-1.71-33.21-6.11-45.75-14.44l-3.25-12.6,1.58-17.48Z"/>
    </g>
    <g>
      <path class="cls-6" d="M43.79,305.39l-40.42,2.81c11.97,2.1,25.69,4.9,32.15,16.58,3.59,6.5,3.68,13.48,2.3,20.18l16.08-23.64c4.03-7.45-1.15-15.61-10.11-15.93Z"/>
      <path class="cls-6" d="M35.2,270.67l-28.61-17.63c7.07,7.34,14.98,16.03,13.75,27.63-.69,6.45-3.97,11.54-8.11,15.72l22.17-9.28c6.28-3.43,6.7-11.86.81-16.44Z"/>
      <path class="cls-9" d="M4.23,299.74c-2.71,1.13-3.66,3.4-3.35,5.59,3.7-2.5,7.83-5.39,11.35-8.93l-7.99,3.35Z"/>
      <path class="cls-9" d="M3.2,250.95l3.39,2.09c-2.43-2.52-4.76-4.89-6.59-7.15.07,1.85,1.03,3.73,3.19,5.06Z"/>
      <path class="cls-9" d="M46.6,324.14l-9.38,21.11c-2.37,5.32,5.46,9.9,9.27,5.43l44.18-34.49,1.67-6.49c-12.54,8.33-29.39,12.74-45.75,14.44Z"/>
      <path class="cls-9" d="M94.02,279.62l-10.87-11.9-11.41-5.22-63.15-22.33c-4.99-1.77-8.73,1.9-8.59,5.73,1.82,2.26,4.16,4.63,6.59,7.15l28.61,17.63c5.89,4.58,5.47,13.01-.81,16.44l-22.17,9.28c-3.52,3.55-7.65,6.44-11.35,8.93.44,3.17,3.53,6.18,7.77,5.28l30.2-2.82c7.64-.12,12.44,4.14,10.2,10.87l-2.44,5.49c16.36-1.71,33.21-6.11,45.75-14.44l3.25-12.6-1.58-17.48Z"/>
    </g>
    <circle class="cls-6" cx="171.53" cy="228.77" r="119.39"/>
    <g id="Layer_4" data-name="Layer 4">
      <path class="cls-10" d="M136.37,197.11c-26.8-5.55-32.43,40.74-51.71,54.49-31.75,22.63-45.51-36.01-31.23-69.66,15.88-37.43,49.74-40.38,55-29.25,7.93,16.8,24.05-13.9,28.12-.44,3.7,12.25,6.88,7.7,13.26,11.03,4.96,2.59-14.38,9.88-12.88,15.33,1.74,6.31,5.47,19.75-.55,18.5Z"/>
      <path class="cls-10" d="M206.93,197.11c26.8-5.55,32.43,40.74,51.71,54.49,31.75,22.63,45.51-36.01,31.23-69.66-15.88-37.43-49.74-40.38-55-29.25-7.93,16.8-24.05-13.9-28.12-.44-3.7,12.25-6.88,7.7-13.26,11.03-4.96,2.59,14.38,9.88,12.88,15.33-1.74,6.31-5.47,19.75.55,18.5Z"/>
    </g>
    <path class="cls-7" d="M98.42,204.24c-7.14,24.94-15.88,44.3-40.82,37.16-24.94-7.14-39.36-33.14-32.22-58.08,7.14-24.94,33.14-39.36,58.08-32.22,24.94,7.14,22.11,28.2,14.97,53.14Z"/>
    <path class="cls-7" d="M242.4,204.24c7.14,24.94,15.88,44.3,40.82,37.16,24.94-7.14,39.36-33.14,32.22-58.08-7.14-24.94-33.14-39.36-58.08-32.22-24.94,7.14-22.11,28.2-14.97,53.14Z"/>
    <path class="cls-9" d="M144.83,94.14c7.39,24.38,18.02,33.71,4.95,35.14-9.67,1.06-4.11-4.61-30.36-13.81-29.15-10.22-55.91-69.5-24.08-70.85,17.98-.76,42.9,27.77,49.49,49.53Z"/>
    <path class="cls-9" d="M185.64,83.76c-11.66,26.55-9.28,49.39-21.64,40.95-9.15-6.25-.24-13.93-16.12-41.33-17.64-30.42,3.12-101.49,31.64-79.09,16.11,12.65,16.53,55.77,6.12,79.47Z"/>
    <path class="cls-9" d="M191.66,94.74c-9.2,23.76-20.5,32.26-7.57,34.67,9.57,1.78,4.44-4.29,31.31-11.5,29.83-8,60.97-65.11,29.33-68.84-17.87-2.11-44.86,24.47-53.07,45.67Z"/>
    <path class="cls-8" d="M261.23,275.53c3.74,27.56-56.64,76.3-110.14,60.11-44.14-13.35-71.89-44.97-71.89-64.34s49.16-29.18,95.27-29.18,84.16,14.21,86.76,33.4Z"/>
    <path class="cls-12" d="M251.31,277.11c3.33,24.56-50.46,67.98-98.12,53.55-39.32-11.9-64.05-40.06-64.05-57.32s43.25-23.51,84.33-23.51,75.52,10.18,77.84,27.27Z"/>
    <path class="cls-5" d="M230.89,296.8c0,12.91-17.77,36.74-57.12,36.74s-59.93-22.16-59.93-35.07,20.58-17.53,59.93-17.53,57.12,2.95,57.12,15.86Z"/>
    <path class="cls-3" d="M173.58,262.14c-.4,7.26-.39,15.07,13.18,15.8,10.31.55,15.1-5.79,17.13-15.6.94-4.56,1.9-8.49-.73-11.49-2.24-2.55-5.99-3.22-10.31-3.98-3.92-.7-7.26-.64-9.55-.46-1.82.39-4.96,1.33-7.23,3.8-2.58,2.8-2.16,5.99-2.49,11.94Z"/>
    <path class="cls-3" d="M171.15,262.49c.23,7.27.05,15.08-13.54,15.49-10.32.32-14.96-6.13-16.77-15.99-.84-4.58-1.71-8.54.99-11.47,2.3-2.5,6.06-3.08,10.4-3.75,3.93-.61,7.27-.48,9.56-.24,1.81.43,4.93,1.44,7.14,3.96,2.51,2.86,2.02,6.03,2.22,12Z"/>
    <path class="cls-4" d="M262.42,195.2c4.54,14.66,9.51,26.15,20.43,22.77,10.93-3.38,16.1-18.01,11.57-32.67-4.54-14.66-17.07-23.81-28-20.43-10.93,3.38-8.54,15.67-4.01,30.33Z"/>
    <path class="cls-4" d="M78.82,196.3c-4.01,14.81-8.58,26.47-19.62,23.48-11.04-2.99-16.73-17.43-12.72-32.24s16.22-24.4,27.26-21.41c11.04,2.99,9.09,15.36,5.08,30.17Z"/>
    <path class="cls-11" d="M70.76,172.58c-1.46,2.39-5.25,5.22-7.84,5.87-2.88.72-4.28.41-7.11-1.32-5.37-3.27-5.38-8.63-2.31-13.67,3.07-5.04,9.91-6.47,15.28-3.2,5.37,3.27,5.05,7.28,1.98,12.31Z"/>
    <path class="cls-11" d="M271.65,172.01c1.46,2.39,5.25,5.22,7.84,5.87,2.88.72,4.28.41,7.11-1.32,5.37-3.27,5.38-8.63,2.31-13.67-3.07-5.04-9.91-6.47-15.28-3.2s-5.05,7.28-1.98,12.31Z"/>
    <text class="cls-2" transform="translate(354.57 178.78)"><tspan class="cls-1"><tspan x="0" y="0">La Hutte des </tspan></tspan><tspan class="cls-13"><tspan x="0" y="156.67">Murlocs</tspan></tspan></text>
  </g>
</svg>