<?xml version="1.0" encoding="UTF-8"?>
<svg id="Layer_2" data-name="Layer 2" xmlns="http://www.w3.org/2000/svg" viewBox="0 0 997.3 1024">
  <defs>
    <style>
      .cls-1 {
        fill: #f7fcfd;
      }

      .cls-1, .cls-2, .cls-3, .cls-4, .cls-5, .cls-6, .cls-7, .cls-8, .cls-9, .cls-10 {
        stroke-width: 0px;
      }

      .cls-2 {
        fill: #231f20;
      }

      .cls-3 {
        fill: #e6747d;
      }

      .cls-4 {
        fill: #bce5f0;
      }

      .cls-5 {
        fill: #ffd109;
      }

      .cls-6 {
        fill: #f58c8b;
      }

      .cls-7 {
        fill: #f8adae;
      }

      .cls-8 {
        fill: #618eca;
      }

      .cls-9 {
        fill: #fff;
      }

      .cls-10 {
        fill: #b66868;
      }
    </style>
  </defs>
  <g id="Layer_5" data-name="Layer 5">
    <g>
      <path class="cls-4" d="M870.09,887.17l117.42,8.16c-34.77,6.09-74.62,14.22-93.38,48.16-10.44,18.88-10.69,39.16-6.67,58.64l-46.72-68.67c-11.69-21.65,3.35-45.36,29.36-46.28Z"/>
      <path class="cls-4" d="M895.04,786.31l83.11-51.2c-20.54,21.32-43.53,46.58-39.93,80.26,2,18.74,11.54,33.53,23.57,45.67l-64.4-26.96c-18.25-9.98-19.46-34.44-2.35-47.76Z"/>
      <path class="cls-7" d="M985.02,870.76c7.86,3.29,10.63,9.88,9.74,16.23-10.75-7.26-22.75-15.65-32.97-25.95l23.23,9.72Z"/>
      <path class="cls-7" d="M988,729.03l-9.85,6.07c7.06-7.33,13.83-14.2,19.13-20.78-.2,5.36-2.99,10.83-9.28,14.71Z"/>
      <path class="cls-7" d="M861.91,941.65l27.24,61.32c6.87,15.46-15.86,28.77-26.93,15.77l-128.36-100.19-4.86-18.85c36.44,24.21,85.37,37,132.9,41.96Z"/>
      <path class="cls-7" d="M724.16,812.3l31.59-34.58,33.14-15.17,183.45-64.86c14.5-5.13,25.36,5.51,24.95,16.64-5.3,6.58-12.07,13.45-19.13,20.78l-83.11,51.2c-17.11,13.32-15.9,37.78,2.35,47.76l64.4,26.96c10.22,10.31,22.22,18.7,32.97,25.95-1.28,9.22-10.27,17.94-22.56,15.34l-87.73-8.19c-22.19-.34-36.15,12.02-29.64,31.58l7.08,15.94c-47.53-4.96-96.46-17.75-132.9-41.96l-9.43-36.61,4.58-50.78Z"/>
    </g>
    <g>
      <path class="cls-4" d="M127.2,887.17l-117.42,8.16c34.77,6.09,74.62,14.22,93.38,48.16,10.44,18.88,10.69,39.16,6.67,58.64l46.72-68.67c11.69-21.65-3.35-45.36-29.36-46.28Z"/>
      <path class="cls-4" d="M102.25,786.31l-83.11-51.2c20.54,21.32,43.53,46.58,39.93,80.26-2,18.74-11.54,33.53-23.57,45.67l64.4-26.96c18.25-9.98,19.46-34.44,2.35-47.76Z"/>
      <path class="cls-7" d="M12.28,870.76c-7.86,3.29-10.63,9.88-9.74,16.23,10.75-7.26,22.75-15.65,32.97-25.95l-23.23,9.72Z"/>
      <path class="cls-7" d="M9.29,729.03l9.85,6.07c-7.06-7.33-13.83-14.2-19.13-20.78.2,5.36,2.99,10.83,9.28,14.71Z"/>
      <path class="cls-7" d="M135.38,941.65l-27.24,61.32c-6.87,15.46,15.86,28.77,26.93,15.77l128.36-100.19,4.86-18.85c-36.44,24.21-85.37,37-132.9,41.96Z"/>
      <path class="cls-7" d="M273.14,812.3l-31.59-34.58-33.14-15.17-183.45-64.86c-14.5-5.13-25.36,5.51-24.95,16.64,5.3,6.58,12.07,13.45,19.13,20.78l83.11,51.2c17.11,13.32,15.9,37.78-2.35,47.76l-64.4,26.96c-10.22,10.31-22.22,18.7-32.97,25.95,1.28,9.22,10.27,17.94,22.56,15.34l87.73-8.19c22.19-.34,36.15,12.02,29.64,31.58l-7.08,15.94c47.53-4.96,96.46-17.75,132.9-41.96l9.43-36.61-4.58-50.78Z"/>
    </g>
    <circle class="cls-4" cx="498.3" cy="664.59" r="346.85"/>
    <path class="cls-8" d="M396.16,572.62c-77.85-16.11-94.2,118.36-150.22,158.28-92.23,65.73-132.2-104.61-90.74-202.37,46.12-108.75,144.51-117.29,159.77-84.97,23.05,48.8,69.86-40.38,81.69-1.27,10.76,35.59,19.99,22.36,38.53,32.03,14.42,7.53-41.79,28.69-37.43,44.54,5.04,18.33,15.9,57.37-1.6,53.75Z"/>
    <path class="cls-8" d="M601.13,572.62c77.85-16.11,94.2,118.36,150.22,158.28,92.23,65.73,132.2-104.61,90.74-202.37-46.12-108.75-144.51-117.29-159.77-84.97-23.05,48.8-69.86-40.38-81.69-1.27-10.76,35.59-19.99,22.36-38.53,32.03-14.42,7.53,41.79,28.69,37.43,44.54-5.04,18.33-15.9,57.37,1.6,53.75Z"/>
    <path class="cls-5" d="M285.91,593.33c-20.74,72.44-46.14,128.7-118.58,107.97-72.44-20.74-114.35-96.28-93.61-168.72,20.74-72.44,96.28-114.35,168.72-93.61,72.44,20.74,64.22,81.92,43.48,154.36Z"/>
    <path class="cls-5" d="M704.19,593.33c20.74,72.44,46.14,128.7,118.58,107.97,72.44-20.74,114.35-96.28,93.61-168.72-20.74-72.44-96.28-114.35-168.72-93.61-72.44,20.74-64.22,81.92-43.48,154.36Z"/>
    <path class="cls-7" d="M420.74,273.47c21.47,70.83,52.34,97.92,14.37,102.08-28.11,3.08-11.93-13.39-88.19-40.13-84.68-29.69-162.41-201.91-69.95-205.82,52.23-2.21,124.62,80.68,143.77,143.88Z"/>
    <path class="cls-7" d="M539.3,243.33c-33.88,77.14-26.95,143.49-62.86,118.97-26.58-18.15-.69-40.48-46.83-120.07-51.24-88.37,9.06-294.84,91.91-229.77,46.8,36.76,48.02,162.03,17.79,230.86Z"/>
    <path class="cls-7" d="M556.77,275.23c-26.73,69.02-59.55,93.71-21.99,100.71,27.8,5.18,12.9-12.46,90.96-33.4,86.67-23.25,177.11-189.15,85.21-199.99-51.91-6.12-130.32,71.09-154.17,132.68Z"/>
    <path class="cls-6" d="M758.9,800.42c10.87,80.08-164.54,221.66-319.96,174.64-128.22-38.79-208.85-130.64-208.85-186.9s142.81-84.76,276.76-84.76,244.48,41.27,252.05,97.02Z"/>
    <path class="cls-10" d="M730.07,805.03c9.69,71.34-146.58,197.47-285.05,155.58-114.23-34.56-186.06-116.38-186.06-166.5s125.64-68.31,244.98-68.31,219.39,29.57,226.13,79.23Z"/>
    <path class="cls-3" d="M670.74,862.21c0,37.51-51.62,106.72-165.93,106.72s-174.1-64.36-174.1-101.87,59.79-50.94,174.1-50.94,165.93,8.58,165.93,46.08Z"/>
    <path class="cls-1" d="M504.25,761.53c-1.16,21.09-1.14,43.78,38.3,45.89,29.95,1.6,43.85-16.82,49.75-45.32,2.74-13.23,5.53-24.68-2.13-33.38-6.51-7.41-17.39-9.34-29.95-11.57-11.37-2.02-21.08-1.86-27.74-1.34-5.28,1.13-14.4,3.85-21.01,11.04-7.48,8.13-6.28,17.39-7.22,34.69Z"/>
    <path class="cls-1" d="M497.19,762.54c.68,21.11.15,43.79-39.33,45.01-29.97.92-43.46-17.81-48.71-46.44-2.44-13.29-4.97-24.79,2.88-33.32,6.68-7.26,17.6-8.94,30.21-10.89,11.42-1.76,21.11-1.38,27.76-.71,5.25,1.24,14.31,4.18,20.75,11.51,7.3,8.3,5.88,17.53,6.44,34.85Z"/>
    <path class="cls-2" d="M762.35,567.08c13.18,42.6,27.63,75.96,59.36,66.14,31.74-9.82,46.78-52.31,33.61-94.91-13.18-42.6-49.59-69.17-81.33-59.35-31.74,9.82-24.82,45.51-11.64,88.11Z"/>
    <path class="cls-2" d="M228.96,570.28c-11.66,43.04-24.92,76.89-56.99,68.2-32.07-8.69-48.61-50.62-36.94-93.66,11.66-43.04,47.11-70.88,79.18-62.19,32.07,8.69,26.41,44.61,14.75,87.64Z"/>
    <path class="cls-9" d="M205.57,501.35c-4.23,6.94-15.24,15.16-22.77,17.05-8.36,2.1-12.45,1.18-20.65-3.83-15.6-9.51-15.64-25.08-6.72-39.71,8.92-14.64,28.8-18.79,44.4-9.28,15.6,9.51,14.67,21.14,5.74,35.77Z"/>
    <path class="cls-9" d="M789.16,499.71c4.23,6.94,15.24,15.16,22.77,17.05,8.36,2.1,12.45,1.18,20.65-3.83,15.6-9.51,15.64-25.08,6.72-39.71-8.92-14.64-28.8-18.79-44.4-9.28-15.6,9.51-14.67,21.14-5.74,35.77Z"/>
  </g>
</svg>