<?xml version="1.0" encoding="UTF-8"?>
<svg id="Layer_2" data-name="Layer 2" xmlns="http://www.w3.org/2000/svg" viewBox="0 0 710.09 823.33">
  <defs>
    <style>
      .cls-1 {
        fill: #eb6a8e;
      }

      .cls-2 {
        font-family: LifeCraft, LifeCraft;
        font-size: 150px;
      }

      .cls-3 {
        fill: #f7fcfd;
      }

      .cls-3, .cls-4, .cls-5, .cls-6, .cls-7, .cls-8, .cls-9, .cls-10, .cls-11, .cls-12 {
        stroke-width: 0px;
      }

      .cls-4 {
        fill: #231f20;
      }

      .cls-5 {
        fill: #e6747d;
      }

      .cls-13 {
        fill: #7bd1ec;
      }

      .cls-6 {
        fill: #bce5f0;
      }

      .cls-7 {
        fill: #ffd109;
      }

      .cls-8 {
        fill: #f58c8b;
      }

      .cls-9 {
        fill: #f8adae;
      }

      .cls-10 {
        fill: #618eca;
      }

      .cls-11 {
        fill: #fff;
      }

      .cls-12 {
        fill: #b66868;
      }
    </style>
  </defs>
  <g id="Layer_3" data-name="Layer 3">
    <text class="cls-2" transform="translate(17.56 664.03)"><tspan class="cls-1"><tspan x="0" y="0">La Hutte des </tspan></tspan><tspan class="cls-13"><tspan x="110.17" y="120">Murlocs</tspan></tspan></text>
    <g>
      <path class="cls-6" d="M550.86,490.06l64.86,4.51c-19.21,3.37-41.22,7.86-51.58,26.6-5.77,10.43-5.9,21.63-3.69,32.39l-25.81-37.93c-6.46-11.96,1.85-25.05,16.22-25.56Z"/>
      <path class="cls-6" d="M564.64,434.35l45.91-28.28c-11.34,11.78-24.04,25.73-22.06,44.33,1.11,10.35,6.37,18.52,13.02,25.23l-35.57-14.89c-10.08-5.51-10.75-19.03-1.3-26.38Z"/>
      <path class="cls-9" d="M614.34,480.99c4.34,1.82,5.87,5.46,5.38,8.97-5.94-4.01-12.57-8.64-18.21-14.34l12.83,5.37Z"/>
      <path class="cls-9" d="M615.99,402.71l-5.44,3.35c3.9-4.05,7.64-7.84,10.57-11.48-.11,2.96-1.65,5.98-5.13,8.12Z"/>
      <path class="cls-9" d="M546.34,520.15l15.05,33.87c3.8,8.54-8.76,15.89-14.88,8.71l-70.9-55.34-2.68-10.41c20.13,13.37,47.16,20.44,73.41,23.18Z"/>
      <path class="cls-9" d="M470.24,448.7l17.45-19.1,18.3-8.38,101.34-35.83c8.01-2.83,14.01,3.05,13.78,9.19-2.93,3.63-6.67,7.43-10.57,11.48l-45.91,28.28c-9.45,7.36-8.78,20.87,1.3,26.38l35.57,14.89c5.64,5.69,12.27,10.33,18.21,14.34-.71,5.09-5.67,9.91-12.46,8.47l-48.46-4.53c-12.26-.19-19.97,6.64-16.37,17.45l3.91,8.8c-26.26-2.74-53.29-9.8-73.41-23.18l-5.21-20.22,2.53-28.05Z"/>
    </g>
    <g>
      <path class="cls-6" d="M140.49,490.06l-64.86,4.51c19.21,3.37,41.22,7.86,51.58,26.6,5.77,10.43,5.9,21.63,3.69,32.39l25.81-37.93c6.46-11.96-1.85-25.05-16.22-25.56Z"/>
      <path class="cls-6" d="M126.71,434.35l-45.91-28.28c11.34,11.78,24.04,25.73,22.06,44.33-1.11,10.35-6.37,18.52-13.02,25.23l35.57-14.89c10.08-5.51,10.75-19.03,1.3-26.38Z"/>
      <path class="cls-9" d="M77.01,480.99c-4.34,1.82-5.87,5.46-5.38,8.97,5.94-4.01,12.57-8.64,18.21-14.34l-12.83,5.37Z"/>
      <path class="cls-9" d="M75.36,402.71l5.44,3.35c-3.9-4.05-7.64-7.84-10.57-11.48.11,2.96,1.65,5.98,5.13,8.12Z"/>
      <path class="cls-9" d="M145.01,520.15l-15.05,33.87c-3.8,8.54,8.76,15.89,14.88,8.71l70.9-55.34,2.68-10.41c-20.13,13.37-47.16,20.44-73.41,23.18Z"/>
      <path class="cls-9" d="M221.11,448.7l-17.45-19.1-18.3-8.38-101.34-35.83c-8.01-2.83-14.01,3.05-13.78,9.19,2.93,3.63,6.67,7.43,10.57,11.48l45.91,28.28c9.45,7.36,8.78,20.87-1.3,26.38l-35.57,14.89c-5.64,5.69-12.27,10.33-18.21,14.34.71,5.09,5.67,9.91,12.46,8.47l48.46-4.53c12.26-.19,19.97,6.64,16.37,17.45l-3.91,8.8c26.26-2.74,53.29-9.8,73.41-23.18l5.21-20.22-2.53-28.05Z"/>
    </g>
    <circle class="cls-6" cx="345.48" cy="367.11" r="191.59"/>
    <path class="cls-10" d="M289.06,316.31c-43.01-8.9-52.04,65.38-82.98,87.43-50.95,36.31-73.02-57.79-50.12-111.78,25.48-60.07,79.82-64.79,88.26-46.93,12.73,26.95,38.59-22.31,45.12-.7,5.94,19.66,11.04,12.35,21.28,17.7,7.96,4.16-23.08,15.85-20.67,24.6,2.79,10.12,8.78,31.69-.89,29.69Z"/>
    <path class="cls-10" d="M402.29,316.31c43.01-8.9,52.04,65.38,82.98,87.43,50.95,36.31,73.02-57.79,50.12-111.78-25.48-60.07-79.82-64.79-88.26-46.93-12.73,26.95-38.59-22.31-45.12-.7-5.94,19.66-11.04,12.35-21.28,17.7-7.96,4.16,23.08,15.85,20.67,24.6-2.79,10.12-8.78,31.69.89,29.69Z"/>
    <path class="cls-7" d="M228.16,327.75c-11.46,40.01-25.49,71.09-65.5,59.64-40.01-11.46-63.17-53.18-51.71-93.2,11.46-40.01,53.18-63.17,93.2-51.71,40.01,11.46,35.47,45.25,24.02,85.27Z"/>
    <path class="cls-7" d="M459.21,327.75c11.46,40.01,25.49,71.09,65.5,59.64,40.01-11.46,63.17-53.18,51.71-93.2-11.46-40.01-53.18-63.17-93.2-51.71-40.01,11.46-35.47,45.25-24.02,85.27Z"/>
    <path class="cls-9" d="M302.64,151.06c11.86,39.12,28.91,54.09,7.94,56.39-15.53,1.7-6.59-7.4-48.72-22.17-46.78-16.4-89.71-111.53-38.64-113.69,28.85-1.22,68.84,44.56,79.42,79.48Z"/>
    <path class="cls-9" d="M368.13,134.41c-18.71,42.61-14.89,79.26-34.73,65.72-14.68-10.03-.38-22.36-25.87-66.32-28.3-48.82,5-162.87,50.77-126.92,25.85,20.31,26.53,89.5,9.83,127.53Z"/>
    <path class="cls-9" d="M377.78,152.03c-14.76,38.12-32.89,51.77-12.15,55.63,15.35,2.86,7.13-6.88,50.24-18.45,47.88-12.84,97.84-104.48,47.07-110.47-28.68-3.38-71.99,39.27-85.16,73.29Z"/>
    <path class="cls-8" d="M489.43,442.14c6.01,44.23-90.89,122.44-176.74,96.47-70.82-21.43-115.37-72.16-115.37-103.24s78.89-46.82,152.88-46.82,135.05,22.8,139.23,53.59Z"/>
    <path class="cls-12" d="M473.51,444.69c5.35,39.41-80.97,109.08-157.46,85.94-63.1-19.09-102.78-64.29-102.78-91.97s69.4-37.73,135.32-37.73,121.19,16.33,124.91,43.77Z"/>
    <path class="cls-5" d="M440.74,476.28c0,20.72-28.51,58.95-91.66,58.95s-96.17-35.55-96.17-56.27,33.03-28.14,96.17-28.14,91.66,4.74,91.66,25.46Z"/>
    <path class="cls-3" d="M348.77,420.66c-.64,11.65-.63,24.18,21.16,25.35,16.54.88,24.22-9.29,27.48-25.04,1.51-7.31,3.05-13.63-1.17-18.44-3.6-4.09-9.61-5.16-16.55-6.39-6.28-1.12-11.64-1.03-15.32-.74-2.91.62-7.95,2.13-11.61,6.1-4.13,4.49-3.47,9.61-3.99,19.16Z"/>
    <path class="cls-3" d="M344.87,421.22c.37,11.66.08,24.19-21.72,24.86-16.56.51-24.01-9.84-26.91-25.65-1.35-7.34-2.74-13.7,1.59-18.41,3.69-4.01,9.72-4.94,16.69-6.02,6.31-.97,11.66-.76,15.34-.39,2.9.69,7.9,2.31,11.46,6.36,4.03,4.58,3.25,9.68,3.56,19.25Z"/>
    <path class="cls-4" d="M491.34,313.25c7.28,23.53,15.26,41.96,32.79,36.54,17.53-5.42,25.84-28.9,18.56-52.43-7.28-23.53-27.39-38.21-44.93-32.78-17.53,5.42-13.71,25.14-6.43,48.67Z"/>
    <path class="cls-4" d="M196.7,315.01c-6.44,23.77-13.77,42.47-31.48,37.67-17.71-4.8-26.85-27.96-20.41-51.74,6.44-23.77,26.02-39.15,43.74-34.35,17.71,4.8,14.59,24.64,8.15,48.41Z"/>
    <path class="cls-11" d="M183.78,276.94c-2.34,3.83-8.42,8.37-12.58,9.42-4.62,1.16-6.88.65-11.41-2.11-8.62-5.25-8.64-13.85-3.71-21.94,4.93-8.09,15.91-10.38,24.53-5.13,8.62,5.25,8.1,11.68,3.17,19.76Z"/>
    <path class="cls-11" d="M506.15,276.03c2.34,3.83,8.42,8.37,12.58,9.42,4.62,1.16,6.88.65,11.41-2.11,8.62-5.25,8.64-13.85,3.71-21.94-4.93-8.09-15.91-10.38-24.53-5.13-8.62,5.25-8.1,11.68-3.17,19.76Z"/>
  </g>
</svg>